<svg width="1728" height="1117" viewBox="0 0 1728 1117" fill="none" xmlns="http://www.w3.org/2000/svg">
<path d="M1.47566 3.44568e-09L1.47561 1117M116.577 0L116.577 1117M231.679 0L231.679 1117M346.781 0L346.781 1117M461.882 0L461.882 1117M576.984 0L576.984 1117M692.086 0L692.086 1117M807.187 0L807.187 1117M922.289 0L922.289 1117M1037.39 0V1117M1152.49 0V1117M1267.59 0V1117M1382.7 0V1117M1497.8 0V1117M1612.9 0V1117M1728 0V1117M0 2.5H1699.96M0 113.5H1699.96M0 224.5H1699.96M0 335.5H1699.96M0 446.5H1699.96M0 557.5H1699.96M0 668.5H1699.96M0 779.5H1699.96M0 890.5H1699.96M0 1001.5H1699.96M0 1112.5H1699.96" stroke="#071857" stroke-opacity="0.2" stroke-width="3"/>
<mask id="mask0_9_129" style="mask-type:alpha" maskUnits="userSpaceOnUse" x="-1" y="0" width="1731" height="1117">
<path d="M1.47566 3.44568e-09L1.47561 1117M116.577 0L116.577 1117M231.679 0L231.679 1117M346.781 0L346.781 1117M461.882 0L461.882 1117M576.984 0L576.984 1117M692.086 0L692.086 1117M807.187 0L807.187 1117M922.289 0L922.289 1117M1037.39 0V1117M1152.49 0V1117M1267.59 0V1117M1382.7 0V1117M1497.8 0V1117M1612.9 0V1117M1728 0V1117M0 2.5H1699.96M0 113.5H1699.96M0 224.5H1699.96M0 335.5H1699.96M0 446.5H1699.96M0 557.5H1699.96M0 668.5H1699.96M0 779.5H1699.96M0 890.5H1699.96M0 1001.5H1699.96M0 1112.5H1699.96" stroke="#07CBF1" stroke-width="3"/>
</mask>
<g mask="url(#mask0_9_129)">
<ellipse cx="849.981" cy="559" rx="569.605" ry="493" fill="#343781" fill-opacity="0.18"/>
<path d="M1419.09 559C1419.09 830.935 1164.36 1051.5 849.981 1051.5C535.603 1051.5 280.876 830.935 280.876 559C280.876 287.065 535.603 66.5 849.981 66.5C1164.36 66.5 1419.09 287.065 1419.09 559Z" stroke="#343781" stroke-opacity="0.18"/>
</g>
</svg>
